<svg xmlns="http://www.w3.org/2000/svg" width="787.26" height="837.485" viewBox="0 0 787.26 837.485">
  <g id="logo_front" transform="translate(-0.024 0.485)">
    <path id="Path_52" d="M780.966,508.381a60.59,60.59,0,0,0-11.034-9.386c-17.469-11.5-36.963-18.606-57.052-23.421-27.731-6.647-55.779-11.99-83.754-17.575a12.688,12.688,0,0,1-4.909-1.777,210.326,210.326,0,0,0,22.207-19.3c68.851-68.851,77.756-171.576,19.889-229.443-52.593-52.593-142.236-50.025-209.829,2.566-1.292-37.817-19.546-69.4-44.334-80.136V92.475h42.8V55.659h-42.8V-.485H375.334V55.659h-42.8V92.475h42.8v37.242c-25.192,10.614-43.743,42.714-44.815,81.11-67.722-53.452-158.075-56.35-210.963-3.462-57.867,57.867-48.963,160.592,19.888,229.443a210.3,210.3,0,0,0,23.107,19.979,14.874,14.874,0,0,1-4.391,1.138c-30.737,4.676-61.239,10.51-91.007,19.633-18.4,5.639-36.676,11.828-52.426,23.323-19.676,14.361-19.755,30.363.676,43.668A179.619,179.619,0,0,0,51.495,562.3c41.2,15.087,84.289,22.252,127.573,28.064,71.146,9.554,142.688,13.028,214.445,13.671,30.878-.935,61.771-1.519,92.63-2.885,50.807-2.25,101.409-6.911,151.625-15.143,36.181-5.931,72.1-13.1,106.365-26.665,13.564-5.369,26.87-11.4,36.935-22.507C789.378,527.669,789.369,517.464,780.966,508.381Z"/>
    <path id="Path_53" d="M284,232S94,161,125.218,328.469C125.218,328.469,102,196,284,232Z" fill="#fff"/>
    <path id="Path_54" d="M394,637.194a1814.51,1814.51,0,0,1-244.785-16.619c-18.72,112.533,30.966,251.718,169.3,208.283,24-11.981,49.764-27.953,75.487-29.7ZM273.044,737.654c-29.134,4.131-88.629-27.745-39.663-48.38C302.552,654.67,389.24,728.685,273.044,737.654Z"/>
    <path id="Path_55" d="M638.208,620.575a1814.505,1814.505,0,0,1-244.5,16.618,1814.52,1814.52,0,0,1-244.5-16.618c-18.72,112.533,30.966,251.718,169.3,208.283,23.912-11.937,49.571-27.829,75.2-29.677,25.627,1.848,51.286,17.74,75.2,29.677C607.242,872.293,656.928,733.108,638.208,620.575ZM273.044,737.654c-29.134,4.131-88.629-27.745-39.663-48.38C302.552,654.67,389.24,728.685,273.044,737.654Zm241.335,0c-116.2-8.969-29.508-82.984,39.663-48.38C603.009,709.909,543.513,741.785,514.379,737.654Z"/>
  </g>
</svg>
