<svg xmlns="http://www.w3.org/2000/svg" width="99" height="120.082" viewBox="0 0 99 120.082">
  <path id="movequeen" d="M519.919,954.216c-2.713-4.676-5.353-9.4-8.126-14.039a3.551,3.551,0,0,0-2.128-1.516c-4.627-.883-9.11-6.03-9.275-10.778-.2-5.8,2.366-10.141,7.03-13.346a4.4,4.4,0,0,0,2.33-3.426c1.564-10.415,3.805-20.758,5.55-31.154,1.62-9.815,3.829-19.561,4.8-29.473.024-3.08-2.942-.1-3.587,1.137-6.8,11.492-13.16,22.54-19.989,34.044a.8.8,0,0,1-1.467-.278,16.885,16.885,0,0,1-.234-1.963q-.665-15.146-1.258-30.3c-.173-4.478-.234-8.96-.439-13.439a4.414,4.414,0,0,0-.6-1.669.524.524,0,0,0-.746-.218,4.813,4.813,0,0,0-1.822,1.423,51.4,51.4,0,0,0-2.648,5.808c-5.373,12.939-10.44,25.543-15.518,38.683a.786.786,0,0,1-1.451.044s0-.008,0-.012c-6.187-14.732-11.512-29.856-18.392-44.286a3.076,3.076,0,0,0-1.878-1.1c-.161-.044-.83.931-.895,1.479-2.1,14.773-1.008,29.259-2.015,44.129a.794.794,0,0,1-1.479.347c-7.142-12.249-13.684-23.846-21.25-35.624a2.929,2.929,0,0,0-.975-.8.526.526,0,0,0-.738.2,2.626,2.626,0,0,0-.484,1.342c.935,14.6,4.406,28.856,6.816,43.254,1.181,6.53,2.354,13.06,3.628,19.569a3.079,3.079,0,0,0,1.423,1.987c3.1,1.318,4.913,3.8,6.409,6.6,3.99,7.465-.758,16.57-8.195,17.848a2.8,2.8,0,0,0-1.665,1.258c-2.906,4.873-5.748,9.787-8.577,14.708-.935,1.628-.306,2.85,1.568,3.076.024,0,.048,0,.073,0,31.412.222,62.852-.177,94.268.04C520.757,957.735,521.3,956.591,519.919,954.216ZM436.4,908.737a.528.528,0,0,1-.709-.4q-3.718-20.871-7.457-41.847c.814-.3.625-.234,1.439-.532,5.659,9.589,11.153,19.279,16.841,28.856.4.677,1.846,1.528,2.128,1.33.891-.629,1.366-.455,1.766-1.479a17.984,17.984,0,0,0,.407-4.164q.326-19.4,1.274-38.768s0-.008,0-.012a.526.526,0,0,1,1.016-.145c5,12.79,9.952,25.628,14.624,38.526a2.942,2.942,0,0,0,3.233,2.37c.77-.056,1.757-1.27,2.132-2.177,5.442-12.794,10.186-25.724,15.8-38.437a.529.529,0,0,1,1.012.218c-.02,12.983-.048,25.075.492,37.95.089,1.886-.548,2.483.318,4.236.629,1.27,4.027,2.132,4.942.556q8.12-14,16.252-28l1.379.5q-3.44,20.478-6.876,40.9a.526.526,0,0,1-.709.4C482.707,899.809,459.755,899.716,436.4,908.737Zm5.091,29.013c5.74-6.808,6.046-17.316-2.519-25.087a.529.529,0,0,1,.173-.883c21.424-8.037,42.646-8.086,64.138.06a.531.531,0,0,1,.177.879c-3.587,3.382-6.26,7.114-6.707,12.08a15.957,15.957,0,0,0,4.192,12.935.527.527,0,0,1-.383.887H441.891A.527.527,0,0,1,441.492,937.751Zm72.884,16.079H427.993a.53.53,0,0,1-.456-.8,41.719,41.719,0,0,0,3.346-6.054c1.516-3.938,4.257-4.462,8.1-4.43,22.762.185,45.523.1,68.285.068A2.124,2.124,0,0,1,509.5,943.8c1.681,3.055,3.475,6.054,5.329,9.226A.531.531,0,0,1,514.376,953.83Z" transform="translate(-421.647 -837.719)" fill="#f2f2f2"/>
</svg>
