<svg xmlns="http://www.w3.org/2000/svg" width="115.296" height="128.84" viewBox="0 0 115.296 128.84">
  <g id="moveking" transform="translate(-96.078 -843.974)">
    <path id="Path_30" d="M204.681,961.263c-2.53-4.082-4.5-8.472-8.178-11.894-3.978-3.7-5.35-8.658-4.662-14.093,4.177-.579,4.444-1.584,2.743-3.956,1.711-1.43,3.539-2.792,5.214-4.272,13.1-11.468,15.922-33.07,4.114-46.417-9.029-10.5-23.937-13.3-36.492-8a2.7,2.7,0,0,1-1.684.281c-3.191-1.086-6.345-2.272-9.5-3.422v-9.26c2.924-.1,5.512.2,8.355.068,1.186-.1,2.715.072,2.969-1.779.267-1.928-.606-3.023-2.652-3.059-2.869-.054-5.743-.014-8.857-.014,0-2.426.041-4.612-.014-6.8-.045-1.874.683-4.25-2.24-4.653-1.738-.235-2.372,1.145-2.376,4.757,0,2.177,0,4.354,0,6.694-3.073,0-5.807.036-8.536-.014-1.738-.032-3.213.588-3.308,2.354-.018,3.431,4.517,2.394,6.789,2.485,1.634-.009,3.263,0,4.892,0V869.5c-3.087,1.086-5.915,2.136-8.785,3.046a3.922,3.922,0,0,1-2.494.027c-13.541-5.825-30.6-1.561-38.655,11.025-7.033,10.351-6.829,24.688-.38,35.274a37.467,37.467,0,0,0,11.717,12.007c-1.335,2.684-1.177,2.933,1.394,3.992.706.294,1.638,1.032,1.729,1.67.81,5.766-.9,10.64-5.521,14.36a6.833,6.833,0,0,0-1.792,1.715q-4.915,8.825-9.681,17.728c-.8,1.484-.091,2.3,1.5,2.43,27.775.054,55.559-.086,83.339-.072,7.762,0,15.524.1,23.285.109,3.25,0,3.693-.742,2.181-3.621C207.69,966.513,206.274,963.834,204.681,961.263Zm-15.193-84.574c9.934,3.657,15.419,11.17,16.827,21.443a27.07,27.07,0,0,1-6.123,21.041c-2.788,3.467-6.336,6.318-9.323,9.237-5.938-1.6-11.4-3.068-16.985-4.576,10.613-13.55,9.78-34.9-2.964-46.937C177.277,873.9,183.459,874.472,189.488,876.689Zm-30.563-1.145c7.631,1.706,12.025,7.1,14.99,13.7,4.263,9.491,3.616,18.977-1.376,28.087-1.032,1.878-2.272,3.974-3.992,5.046-1.494.928-3.8.688-5.752.715-5.924.081-11.867-.231-17.768.14-3.734.235-6.463-.43-8.5-3.811-3.29-5.445-5.4-11.165-5.245-17.615C130.846,886.936,142.939,871.5,158.925,875.544ZM107.7,919.191c-17.062-21.33,2.734-51.938,29.146-42.357-13.736,13.374-12.383,35.247-2.937,47.041-5.49,1.466-10.993,2.937-16.913,4.521C114.128,925.591,110.516,922.712,107.7,919.191Zm12.912,14.193c12.722-8.029,52.1-7.572,66.539-.177-.683,7.377-.05,9.64,5.187,17.777-25.766.258-51.151.131-77.215.014C120.025,945.523,121.722,939.847,120.614,933.384ZM104.9,967.993c2.037-3.7,4.019-7.232,5.933-10.8a3.377,3.377,0,0,1,3-1.779c26.874.1,53.744.009,80.619.063.724,0,1.806.19,2.109.679,2.376,3.784,4.6,7.658,7.06,11.84Z" fill="#f2f2f2"/>
    <path id="Path_31" d="M214.3,1102.782H115.58c2.037-3.7,4.019-7.232,5.933-10.8a3.377,3.377,0,0,1,3-1.779c26.874.1,53.744.009,80.619.063.724,0,1.806.19,2.109.679C209.613,1094.726,211.835,1098.6,214.3,1102.782Z" transform="translate(-10.676 -134.788)" fill="none"/>
    <path id="Path_32" d="M215.375,1052.028c-25.766.258-51.151.131-77.215.014,4.9-5.476,6.6-11.152,5.49-17.615,12.722-8.029,52.1-7.572,66.539-.177C209.505,1041.627,210.139,1043.89,215.375,1052.028Z" transform="translate(-23.036 -101.042)" fill="none"/>
    <path id="Path_33" d="M290.713,956.5c-2.788,3.467-6.336,6.318-9.323,9.237-5.938-1.6-11.4-3.068-16.985-4.576,10.613-13.55,9.78-34.9-2.964-46.937,6.359-3,12.541-2.426,18.569-.208,9.934,3.657,15.419,11.17,16.827,21.443A27.07,27.07,0,0,1,290.713,956.5Z" transform="translate(-90.522 -37.329)" fill="none"/>
    <path id="Path_34" d="M140.27,961.435c-5.49,1.466-10.993,2.937-16.913,4.521-2.869-2.806-6.481-5.684-9.3-9.206-17.062-21.33,2.734-51.938,29.146-42.357C129.471,927.767,130.824,949.641,140.27,961.435Z" transform="translate(-6.359 -37.559)" fill="none"/>
    <path id="Path_35" d="M215.1,954.731c-1.032,1.878-2.272,3.974-3.992,5.046-1.494.928-3.8.688-5.752.715-5.924.081-11.867-.231-17.768.14-3.734.235-6.463-.43-8.5-3.811-3.29-5.445-5.4-11.165-5.245-17.615-.43-14.876,11.663-30.31,27.648-26.268,7.631,1.706,12.025,7.1,14.99,13.7C220.738,936.134,220.09,945.621,215.1,954.731Z" transform="translate(-42.56 -37.395)" fill="none"/>
  </g>
</svg>
