<svg xmlns="http://www.w3.org/2000/svg" width="123.52" height="109.492" viewBox="0 0 123.52 109.492">
  <g id="moveknight" transform="translate(-376.455 -1227.637)">
    <path id="Path_42" d="M499.569,1334.527c-2.667-4.658-5.542-9.2-8.12-13.905-.831-1.512-2.611-2.448-2.489-4.6a93.106,93.106,0,0,0-2.027-25.438c-4.694-22.511-20.079-48.529-44.653-52.254-2.984-.373-6.008-.434-8.874-.628-1.119-2.647-2.145-5.27-3.328-7.816-1.253-2.688-1.95-2.838-4.427-1.143-3.089,2.112-6.15,4.269-9.016,6.259a16.515,16.515,0,0,0-3.15-2.688c-3.381-1.614-6.835-3.085-10.329-4.439-1.63-.633-2.639.316-2.643,2.213-.016,4.5,0,9.008,0,13.507a5.487,5.487,0,0,0-1.893,2.615c-.73,2.7-.961,5.57-1.926,8.177q-3.478,9.413-7.483,18.62c-2.319,5.282-4.946,10.43-7.56,15.575-1.459,2.866-3.292,5.542-4.7,8.432-.491,1.005-.726,2.761-.174,3.531a21.059,21.059,0,0,0,4.938,5.043c3.734,2.6,7.642,5.392,12.36,1.78.041-.028.195.089.3.138-.624,2.635.081,3.742,2.554,3.648a48.656,48.656,0,0,0,6.409-.7,2.942,2.942,0,0,0,1.788-1.309c5.57-9.628,15.984-18.615,27.035-21.226.393,5.5-1.674,9.681-5.465,13.216-3.884,3.616-7.662,7.346-11.485,11.027-2.112,2.039-2.838,5.371-6,6.454-.207.069-.349.4-.482.628-2.59,4.479-5.242,8.927-7.739,13.459-2.1,3.823-1.646,4.435,2.655,4.427,31.344-.033,62.7-.13,94.037-.037C499.852,1337.036,500.485,1336.124,499.569,1334.527Zm-94.921-102.02c2.076.851,3.961,1.626,6.288,2.578-2.278,1.395-4.159,2.546-6.288,3.851Zm15.757,79.561c8.124-7.71,16.4-11.274,15.384-24.23a2.472,2.472,0,0,1,1.123-2.355c2.509-2.384,4.889-4.9,7.289-7.4a1.64,1.64,0,0,0-.474-2.842,1.784,1.784,0,0,0-2.68.88c-2.513,4.65-6.6,7.192-11.553,8.7a31.539,31.539,0,0,0-11.736,6.012c-1.918,1.662-4.257,2.866-6.032,4.65a104.4,104.4,0,0,0-8.233,9.312c-1.7,2.177-1.484,2.347-4.759,2.9a39.664,39.664,0,0,0,.6-4.629c.02-1.889-1.35-2.631-2.959-1.638-1.954,1.2-3.871,2.485-5.894,3.571a2.714,2.714,0,0,1-2.226.11c-2.566-1.447-5.043-3.049-7.516-4.658-.88-.576-1.115-1.237-.414-2.351a179.305,179.305,0,0,0,21.506-49.173,3.717,3.717,0,0,1,1.366-2.015c7.941-4.605,15.932-9.125,24.254-13.86,1.423,4.131,2.74,9.182,4.832,13.317,2.667-1.013,1.654-2.971,2.092-4.552,16.856-1.082,30.736,10.82,39.014,24.453,9.466,15.587,12.9,33.882,11.845,51.918H415.5A62.9,62.9,0,0,1,420.4,1312.068Zm-15.234,21.116c2.027-3.608,3.961-7.171,6.061-10.633.288-.47,1.4-.612,2.132-.616,24.23-.069,48.464.057,72.694-.061a2.783,2.783,0,0,1,2.838,1.7c1.7,3.174,3.519,6.28,5.4,9.608Z" transform="translate(0)" fill="#f2f2f2"/>
    <path id="Path_43" d="M453.552,1242.747c-2.736,1.675-5,3.058-7.552,4.625v-7.722C448.493,1240.672,450.757,1241.6,453.552,1242.747Z" transform="translate(-41.656 -6.164)" fill="none"/>
    <path id="Path_44" d="M554.331,1473.684H447.29c2.434-4.333,4.757-8.613,7.279-12.771.346-.565,1.685-.735,2.561-.74,29.1-.083,58.207.068,87.307-.073a3.342,3.342,0,0,1,3.408,2.045C549.886,1465.957,552.072,1469.687,554.331,1473.684Z" transform="translate(-61.178 -141.292)" fill="none"/>
    <path id="Path_45" d="M475.263,1280.885c-7.994-16.374-21.4-30.669-37.675-29.369-.423,1.9.556,4.25-2.02,5.468-2.02-4.966-3.292-11.033-4.666-15.994-8.037,5.687-15.753,11.115-23.422,16.646a4.617,4.617,0,0,0-1.319,2.42,244.958,244.958,0,0,1-20.767,59.059c-.677,1.339-.45,2.133.4,2.824,2.388,1.933,4.78,3.856,7.258,5.594a2.161,2.161,0,0,0,2.149-.131c1.953-1.3,3.805-2.843,5.692-4.289,1.554-1.193,2.877-.3,2.858,1.967-.02,1.8-.368,3.6-.583,5.56,3.163-.667,2.952-.872,4.6-3.486a121.047,121.047,0,0,1,7.951-11.184c1.715-2.142,3.973-3.588,5.825-5.585a28.847,28.847,0,0,1,11.333-7.22,18.632,18.632,0,0,0,11.157-10.448c.654-1.5,1.6-1.738,2.588-1.057a2.2,2.2,0,0,1,.458,3.413c-2.318,3-4.615,6.028-7.039,8.89a3.26,3.26,0,0,0-1.084,2.829c.983,15.561-7.011,19.84-14.856,29.1a75.108,75.108,0,0,0-4.741,7.347H486.7C487.715,1321.579,484.4,1299.606,475.263,1280.885Zm-84.307,39.505c-1.73-.063-2.529-1.349-2.627-3.067a2.863,2.863,0,0,1,2.384-3.223c1.386-.268,2.5,1.281,2.525,3.213C393.262,1319.358,392.283,1320.137,390.956,1320.391Zm31-52.247c-1.64,4.09-4.365,6.291-7.927,6.88-2.478.409-4.4-2.04-4.377-6.967.1-2.391,2.349-4.4,4.741-6.3C418.206,1258.43,424.047,1262.087,421.96,1268.143Z" transform="translate(-4.383 -6.852)" fill="none"/>
    <path id="Path_46" d="M453.886,1282.314c-2.975,1.9-5.774,3.91-5.9,6.3-.034,4.927,2.361,7.376,5.443,6.967a12.161,12.161,0,0,0,9.859-6.88C465.887,1282.645,458.623,1278.988,453.886,1282.314Zm6.61,5.982a2.563,2.563,0,0,1-.235.4,18.965,18.965,0,0,1-2.52,2.9c-3.68,3.351-8.888-2.119-5.313-5.583a7.469,7.469,0,0,1,4.923-2.417A3.343,3.343,0,0,1,460.5,1288.3Z" transform="translate(-43.232 -32.305)" fill="#f2f2f2"/>
    <path id="Path_47" d="M399.606,1394.332c.029,2.045-1.188,2.824-2.839,3.077a3.059,3.059,0,0,1-3.267-3.067c-.131-1.889,1.222-2.95,2.965-3.223C398.189,1390.85,399.577,1392.4,399.606,1394.332Z" transform="translate(-8.742 -97.863)" fill="#f2f2f2"/>
  </g>
</svg>
