<svg xmlns="http://www.w3.org/2000/svg" viewBox="0 0 248.05 309.37"><defs><style>.cls-1{fill:#b3b3b3;stroke:#b3b3b3;}.cls-1,.cls-2{stroke-miterlimit:10;}.cls-2{fill:none;stroke:#999;}</style></defs><g id="Layer_2"><g id="katman_1"><path class="cls-1" d="M246.67,303.24c-7.08-12.36-14.06-24.78-21.43-37-1.14-1.88-4.05-2.82-6.29-3.88-1.87-.89-4.58-.7-5.85-2-7.77-8.09-13.22-17.63-13.44-29-.39-20.15-.07-40.32-.08-60.48,0-27.15-.07-54.3,0-81.46,0-10.41,4.23-15.89,14.06-19,3.07-1,5.13-2.8,5.12-6.45-.09-16.66-.06-33.31-.09-50,0-4.11-2.54-6.22-6.09-7.45a59.4,59.4,0,0,0-30.33-2c-8.44,1.5-10.82,4.13-11,12.82-.05,1.95,0,3.89,0,6.17H159c-9.19,0-9,0-9.46-9.14C149.13,6.74,144.2.41,135.91.5s-16.32,0-24.49,0c-8.48.09-12.67,4.24-13.25,12.84-.22,3.27-.57,6.53-.87,9.94H76.55a53,53,0,0,1,0-7c.76-5.44-1.83-8.38-6.69-10.11C57.28,1.75,44.86,3,32.83,8.1c-2,.85-4.09,4.21-4.14,6.45-.35,16.32-.21,32.65-.18,49,0,4.08,2.11,6.33,6.21,7,9,1.52,13.76,7.2,13.76,16.5q0,70-.13,139.94c0,11.16-3.92,21.06-10.7,29.76-2.24,2.88-4.53,6.16-9.42,5-1.28-.3-3.64,1.53-4.65,3-3.33,4.73-6.42,9.64-9.3,14.65C9.9,287,5.63,294.67,1.6,302.48c-2.09,4-1.23,5.73,2.89,6.27a17.11,17.11,0,0,0,2.15.12l228.71-.07c2.82,0,5.66.05,8.48-.17C247.41,308.34,248.52,306.47,246.67,303.24ZM37.58,59.18c0-14,0-27.81,0-41.61,0-4.37,4-4.65,6.42-4.77a141.91,141.91,0,0,1,20.29.7c1.15.1,2.76,2.43,3,3.91.47,3.27.2,6.64.23,10s1.66,5,4.88,5c9.48,0,19,.09,28.46,0,3.2,0,4.8-1.91,4.75-5.14,0-2.27.2-4.57,0-6.81a10.85,10.85,0,0,1,10-11.85,102.59,102.59,0,0,1,19.09.82c4.6.53,7.12,3.28,7,8.51-.29,15.24-1.62,15.52,18,14.3a100.57,100.57,0,0,1,14.1.3c4.64.36,6.27-2,6.73-5.76a25.51,25.51,0,0,0,.05-7c-.73-4.56,1-7.14,5.56-7.13,6.76,0,13.54.31,20.28.84,1.14.09,3,1.94,3,3,.28,7.15.14,14.32.14,21.48V59.17A466.91,466.91,0,0,0,37.58,59.18ZM51.86,250.24a49.47,49.47,0,0,0,5.78-24.32c-.19-43.65,0-87.31-.13-131,0-5.14.06-10.46-1.22-15.34-1.22-4.63-4.17-8.79-6.52-13.47,53-10.36,95.87-8.71,147.7,0a5.64,5.64,0,0,1-.53,1.77c-6.36,8.79-7.49,18.94-7.49,29.33,0,41.15.15,82.3,0,123.44-.06,14.6,3.07,28.06,12.46,40.58H46.35C48.3,257.37,50,253.74,51.86,250.24ZM14.11,299.31c5-8.86,9.62-17.44,14.7-25.74.79-1.29,3.67-1.81,5.59-1.81q78.71-.13,157.41-.07c7.33,0,14.66-.11,22,.07,1.62,0,4,.57,4.71,1.7,5.06,8.32,9.77,16.84,14.91,25.85Z"/><path class="cls-2" d="M209.53,38V59.17a466.91,466.91,0,0,0-171.95,0c0-14,0-27.81,0-41.61,0-4.37,4-4.65,6.42-4.77a141.91,141.91,0,0,1,20.29.7c1.15.1,2.76,2.43,3,3.91.47,3.27.2,6.64.23,10s1.66,5,4.88,5c9.48,0,19,.09,28.46,0,3.2,0,4.8-1.91,4.75-5.14,0-2.27.2-4.57,0-6.81a10.85,10.85,0,0,1,10-11.85,102.59,102.59,0,0,1,19.09.82c4.6.53,7.12,3.28,7,8.51-.29,15.24-1.62,15.52,18,14.3a100.57,100.57,0,0,1,14.1.3c4.64.36,6.27-2,6.73-5.76a25.51,25.51,0,0,0,.05-7c-.73-4.56,1-7.14,5.56-7.13,6.76,0,13.54.31,20.28.84,1.14.09,3,1.94,3,3C209.67,23.68,209.53,30.85,209.53,38Z"/><path class="cls-2" d="M51.86,250.24a49.47,49.47,0,0,0,5.78-24.32c-.19-43.65,0-87.31-.13-131,0-5.14.06-10.46-1.22-15.34-1.22-4.63-4.17-8.79-6.52-13.47,53-10.36,95.87-8.71,147.7,0a5.64,5.64,0,0,1-.53,1.77c-6.36,8.79-7.49,18.94-7.49,29.33,0,41.15.15,82.3,0,123.44-.06,14.6,3.07,28.06,12.46,40.58H46.35C48.3,257.37,50,253.74,51.86,250.24Z"/><path class="cls-2" d="M233.42,299.31H14.11c5-8.86,9.62-17.44,14.7-25.74.79-1.29,3.67-1.81,5.59-1.81q78.71-.13,157.41-.07c7.33,0,14.66-.11,22,.07,1.62,0,4,.57,4.71,1.7C223.57,281.78,228.28,290.3,233.42,299.31Z"/></g></g></svg>