<svg xmlns="http://www.w3.org/2000/svg" width="102.58" height="128.042" viewBox="0 0 102.58 128.042">
  <path id="moverook" d="M841.186,957.893c-2.94-5.132-5.838-10.289-8.9-15.351-.473-.781-1.682-1.171-2.612-1.611-.776-.37-1.9-.291-2.429-.839-3.226-3.359-5.489-7.32-5.581-12.054-.162-8.367-.029-16.742-.033-25.112,0-11.273-.029-22.546-.008-33.824,0-4.323,1.756-6.6,5.838-7.906a2.621,2.621,0,0,0,2.126-2.678c-.037-6.918-.025-13.831-.037-20.744,0-1.706-1.055-2.583-2.529-3.093a24.662,24.662,0,0,0-12.594-.822c-3.5.623-4.493,1.715-4.588,5.323-.021.81,0,1.615,0,2.562h-5.053c-3.816,0-3.72-.008-3.928-3.8-.17-3.168-2.217-5.8-5.659-5.759-3.388.033-6.776-.021-10.169.013-3.521.037-5.261,1.76-5.5,5.331-.091,1.358-.237,2.711-.361,4.127h-8.616a21.988,21.988,0,0,1,.021-2.89c.316-2.259-.76-3.48-2.778-4.2a20.564,20.564,0,0,0-15.4.772,3.585,3.585,0,0,0-1.719,2.678c-.145,6.776-.087,13.557-.075,20.337a2.7,2.7,0,0,0,2.579,2.915c3.737.631,5.713,2.99,5.713,6.851q-.006,29.055-.054,58.106A19.778,19.778,0,0,1,754.4,938.59c-.93,1.2-1.881,2.558-3.911,2.072-.531-.125-1.511.635-1.931,1.237-1.383,1.964-2.666,4-3.861,6.083-1.819,3.164-3.592,6.353-5.265,9.6-.868,1.677-.511,2.379,1.2,2.6a7.084,7.084,0,0,0,.893.05q47.484-.012,94.965-.029c1.171,0,2.35.021,3.521-.071C841.494,960.011,841.954,959.234,841.186,957.893ZM754.368,856.555c0-5.817,0-11.547,0-17.277,0-1.815,1.678-1.931,2.666-1.981a58.921,58.921,0,0,1,8.425.291c.477.042,1.146,1.009,1.237,1.624a31.221,31.221,0,0,1,.1,4.14,1.845,1.845,0,0,0,2.026,2.08c3.936.021,7.877.037,11.817,0a1.842,1.842,0,0,0,1.972-2.134c-.012-.943.083-1.9-.021-2.828a4.5,4.5,0,0,1,4.14-4.92,42.6,42.6,0,0,1,7.927.341c1.91.22,2.956,1.362,2.915,3.534-.121,6.328-.673,6.444,7.474,5.938a41.766,41.766,0,0,1,5.855.125c1.927.15,2.6-.847,2.794-2.392a10.592,10.592,0,0,0,.021-2.9c-.3-1.893.419-2.965,2.309-2.961,2.807.008,5.622.129,8.421.349a1.838,1.838,0,0,1,1.266,1.258c.116,2.969.058,5.946.058,8.919v8.786A193.872,193.872,0,0,0,754.368,856.555Zm5.929,79.332a20.541,20.541,0,0,0,2.4-10.1c-.079-18.124-.021-36.253-.054-54.377a25.569,25.569,0,0,0-.507-6.369c-.507-1.922-1.731-3.65-2.707-5.593,22.027-4.3,39.807-3.617,61.328.017a2.34,2.34,0,0,1-.22.735c-2.641,3.65-3.11,7.864-3.11,12.178-.012,17.086.062,34.173-.012,51.255-.025,6.062,1.275,11.651,5.174,16.85H758.009C758.819,938.847,759.513,937.34,760.3,935.886Zm-15.674,20.375c2.072-3.679,3.994-7.241,6.1-10.688.328-.536,1.524-.752,2.321-.752q32.68-.056,65.36-.029c3.044,0,6.087-.046,9.131.029.673.017,1.669.237,1.956.706,2.1,3.455,4.057,6.992,6.191,10.733Z" transform="translate(-738.973 -832.189)" fill="#f2f2f2"/>
</svg>
