<svg xmlns="http://www.w3.org/2000/svg" width="92.7" height="158.751" viewBox="0 0 92.7 158.751">
  <g id="movebishop" transform="translate(-124.851 -1186.414)">
    <path id="Path_38" d="M213.561,1330.753c-1.732-3.242-3.6-6.415-5.477-9.575-1.492-2.512-2.62-5.549-4.769-7.281a18.067,18.067,0,0,1-4.955-6.637,95.555,95.555,0,0,1-7.666-26.866c-.88-5.921-1.138-11.932-1.922-17.867a35.5,35.5,0,0,1,1.106-16.017c.979-2.92,2.738-5.644,3.681-8.691.662-2.14,1.85-4.112,2.552-6.243a7.188,7.188,0,0,0,.394-3.949c-1.736-6.061-5.01-11.361-8.673-16.434-1.02-1.41-1.986-1.492-3.337-.263-1.764,1.6-3.654,3.06-5.517,4.552,1.342-1.945,2.675-3.9,4.089-5.794,1.174-1.569,1.351-3.056-.154-4.379q-4.386-3.869-8.927-7.553c-1.65-1.333-3.427-1.192-5.236-.077-4.547,2.806-8.142,6.61-11.574,10.636a63.129,63.129,0,0,0-10.794,18.338,7.037,7.037,0,0,0-.195,4.307,78.052,78.052,0,0,0,3.427,8.505c.988,2.217,2.5,4.252,3.16,6.546a29.021,29.021,0,0,1,1.464,9.022c-.281,7.267-.925,14.53-1.727,21.757a104.925,104.925,0,0,1-6.506,27.161c-1.482,3.754-2.5,8.287-7,10.16-.186.077-.317.322-.431.512-3.223,5.4-6.515,10.772-9.638,16.23-1.578,2.765-.834,3.912,2.285,3.917q40,.021,80,0C214.232,1334.77,215.016,1333.478,213.561,1330.753Zm-59.417-91.741c-1.333-3.346-2.484-6.093-3.5-8.886a3.618,3.618,0,0,1-.113-2.349,54.907,54.907,0,0,1,10.414-17.228,104.318,104.318,0,0,1,8.813-8.283,3.108,3.108,0,0,1,2.938-.195c2.507,1.732,4.8,3.781,6.945,5.526-1.623,3.187-3.178,5.925-4.411,8.8a16.335,16.335,0,0,0-.92,4.787c-.063.626.426,1.31.662,1.968a7.793,7.793,0,0,0,2.149-.848c2.8-2.249,5.531-4.588,8.723-7.267,2.185,4.343,4.361,8.587,6.42,12.885a3.014,3.014,0,0,1-.136,2.14c-1.152,2.838-2.412,5.626-3.677,8.541A58.52,58.52,0,0,0,154.144,1239.012Zm3.319,4.194a64.225,64.225,0,0,1,27.8-.032,135.183,135.183,0,0,0,11.062,70.465H146.428A135.986,135.986,0,0,0,157.463,1243.206ZM134.01,1330.44c2.008-3.441,4.048-6.651,5.78-10.024,1.047-2.045,2.416-2.534,4.606-2.521q26.97.136,53.936.009c2.04-.009,3.242.476,4.225,2.421,1.718,3.391,3.844,6.569,5.966,10.114Z" fill="#f2f2f2"/>
    <path id="Path_39" d="M201.6,1491.58H141.1c1.631-7.59,3.287-14.67,4.693-22.11.85-4.51,1.962-5.59,3.74-5.56,14.6.2,29.191.18,43.789.02,1.656-.02,2.632,1.05,3.43,5.34C198.147,1476.75,199.873,1483.76,201.6,1491.58Z" transform="translate(0 -166.372)" fill="none"/>
    <path id="Path_40" d="M168.49,1454.52c1.232-49.65,1.687-101.17,1.368-155.36,1.15-4.55,2.277-4.47,3.446-.07-.323,54.07.13,105.73,1.371,155.43Z" transform="translate(0 -109.354)" fill="none"/>
    <path id="Path_41" d="M269.28,1270.17c-2.54,6.26-5.32,12.41-8.11,18.84a129.083,129.083,0,0,0-75.66.9c-2.94-7.38-5.48-13.44-7.73-19.6a7.98,7.98,0,0,1-.25-5.18c5.53-13.93,12.78-26.94,22.97-38a230.1,230.1,0,0,1,19.44-18.27c1.36-1.18,5.04-1.43,6.48-.43,5.53,3.82,10.58,8.34,15.32,12.19-3.58,7.03-7.01,13.07-9.73,19.41-1.38,3.23-1.68,6.99-2.03,10.56-.14,1.38.94,2.89,1.46,4.34,1.6-.61,3.48-.85,4.74-1.87,6.18-4.96,12.2-10.12,19.24-16.03,4.82,9.58,9.62,18.94,14.16,28.42C270.18,1266.71,269.85,1268.76,269.28,1270.17Z" transform="translate(-52.348)" fill="none"/>
  </g>
</svg>
